<svg width="132" height="121" viewBox="0 0 132 121" fill="none" xmlns="http://www.w3.org/2000/svg">
<rect width="132" height="121" fill="#E5E5E5"/>
<g filter="url(#filter0_d)">
<ellipse cx="66.1979" cy="56.6521" rx="60.8005" ry="55.2142" transform="rotate(-0.792102 66.1979 56.6521)" fill="#8A2BE2"/>
<path d="M126.493 55.8185C126.91 85.9892 100.301 110.9 66.9543 111.361C33.608 111.822 6.32028 87.6565 5.90315 57.4858C5.48602 27.315 32.0952 2.40415 65.4415 1.94312C98.7878 1.48208 126.076 25.6478 126.493 55.8185Z" stroke="#9B51E0"/>
</g>
<g filter="url(#filter1_b)">
<path d="M41.3685 69.8857L25.8477 55.2678L41.1747 40.5104L48.5345 40.4618L33.1436 55.2197L48.7284 69.8372L41.3685 69.8857ZM75.8428 33.1454L63.0433 86.6071L58.7234 86.6356L71.4749 33.1743L75.8428 33.1454ZM84.7179 40.223L92.0777 40.1745L107.662 54.7279L92.2715 69.5498L84.9117 69.5984L100.302 54.7765L84.7179 40.223Z" fill="white"/>
<path d="M41.3685 69.8857L40.6829 70.6137L40.9745 70.8883L41.3751 70.8857L41.3685 69.8857ZM25.8477 55.2678L25.1541 54.5475L24.3977 55.2758L25.1621 55.9958L25.8477 55.2678ZM41.1747 40.5104L41.1681 39.5104L40.7688 39.513L40.4811 39.79L41.1747 40.5104ZM48.5345 40.4618L49.2266 41.1836L51.0395 39.4452L48.5279 39.4618L48.5345 40.4618ZM33.1436 55.2197L32.4515 54.4979L31.6904 55.2277L32.4595 55.9491L33.1436 55.2197ZM48.7284 69.8372L48.735 70.8371L51.2387 70.8206L49.4125 69.1078L48.7284 69.8372ZM42.0541 69.1578L26.5333 54.5399L25.1621 55.9958L40.6829 70.6137L42.0541 69.1578ZM26.5413 55.9882L41.8683 41.2307L40.4811 39.79L25.1541 54.5475L26.5413 55.9882ZM41.1813 41.5103L48.5411 41.4618L48.5279 39.4618L41.1681 39.5104L41.1813 41.5103ZM47.8424 39.74L32.4515 54.4979L33.8357 55.9415L49.2266 41.1836L47.8424 39.74ZM32.4595 55.9491L48.0443 70.5665L49.4125 69.1078L33.8277 54.4903L32.4595 55.9491ZM48.7218 68.8372L41.3619 68.8857L41.3751 70.8857L48.735 70.8371L48.7218 68.8372ZM75.8428 33.1454L76.8154 33.3783L77.1125 32.137L75.8362 32.1455L75.8428 33.1454ZM63.0433 86.6071L63.0499 87.607L63.8334 87.6019L64.0159 86.8399L63.0433 86.6071ZM58.7234 86.6356L57.7507 86.4036L57.4549 87.644L58.73 87.6356L58.7234 86.6356ZM71.4749 33.1743L71.4683 32.1743L70.6842 32.1795L70.5022 32.9423L71.4749 33.1743ZM74.8703 32.9126L62.0708 86.3742L64.0159 86.8399L76.8154 33.3783L74.8703 32.9126ZM63.0367 85.6071L58.7168 85.6356L58.73 87.6356L63.0499 87.607L63.0367 85.6071ZM59.6961 86.8676L72.4476 33.4063L70.5022 32.9423L57.7507 86.4036L59.6961 86.8676ZM71.4815 34.1742L75.8494 34.1454L75.8362 32.1455L71.4683 32.1743L71.4815 34.1742ZM84.7179 40.223L84.7113 39.2231L82.1996 39.2396L84.0353 40.9539L84.7179 40.223ZM92.0777 40.1745L92.7602 39.4436L92.4692 39.1719L92.0711 39.1745L92.0777 40.1745ZM107.662 54.7279L108.356 55.4482L109.115 54.7168L108.345 53.9971L107.662 54.7279ZM92.2715 69.5498L92.2781 70.5498L92.6775 70.5472L92.9652 70.2701L92.2715 69.5498ZM84.9117 69.5984L84.218 68.8781L82.4146 70.6149L84.9183 70.5984L84.9117 69.5984ZM100.302 54.7765L100.996 55.4968L101.755 54.7653L100.985 54.0456L100.302 54.7765ZM84.7245 41.223L92.0843 41.1744L92.0711 39.1745L84.7113 39.2231L84.7245 41.223ZM91.3952 40.9053L106.98 55.4588L108.345 53.9971L92.7602 39.4436L91.3952 40.9053ZM106.968 54.0077L91.5779 68.8295L92.9652 70.2701L108.356 55.4482L106.968 54.0077ZM92.2649 68.5498L84.9051 68.5984L84.9183 70.5984L92.2781 70.5498L92.2649 68.5498ZM85.6054 70.3187L100.996 55.4968L99.6086 54.0562L84.218 68.8781L85.6054 70.3187ZM100.985 54.0456L85.4004 39.4922L84.0353 40.9539L99.6197 55.5074L100.985 54.0456Z" fill="#9B51E0"/>
</g>
<defs>
<filter id="filter0_d" x="0.639893" y="0.602631" width="131.116" height="120.099" filterUnits="userSpaceOnUse" color-interpolation-filters="sRGB">
<feFlood flood-opacity="0" result="BackgroundImageFix"/>
<feColorMatrix in="SourceAlpha" type="matrix" values="0 0 0 0 0 0 0 0 0 0 0 0 0 0 0 0 0 0 127 0"/>
<feOffset dy="4"/>
<feGaussianBlur stdDeviation="2"/>
<feColorMatrix type="matrix" values="0 0 0 0 0 0 0 0 0 0 0 0 0 0 0 0 0 0 0.25 0"/>
<feBlend mode="normal" in2="BackgroundImageFix" result="effect1_dropShadow"/>
<feBlend mode="normal" in="SourceGraphic" in2="effect1_dropShadow" result="shape"/>
</filter>
<filter id="filter1_b" x="20.3977" y="28.137" width="92.7176" height="63.5069" filterUnits="userSpaceOnUse" color-interpolation-filters="sRGB">
<feFlood flood-opacity="0" result="BackgroundImageFix"/>
<feGaussianBlur in="BackgroundImage" stdDeviation="2"/>
<feComposite in2="SourceAlpha" operator="in" result="effect1_backgroundBlur"/>
<feBlend mode="normal" in="SourceGraphic" in2="effect1_backgroundBlur" result="shape"/>
</filter>
</defs>
</svg>
